<?xml version="1.0" encoding="UTF-8"?>
<!DOCTYPE svg PUBLIC "-//W3C//DTD SVG 1.1//EN" "http://www.w3.org/Graphics/SVG/1.1/DTD/svg11.dtd">
<svg xmlns="http://www.w3.org/2000/svg" version="1.1" width="500px" height="500px" style="shape-rendering:geometricPrecision; text-rendering:geometricPrecision; image-rendering:optimizeQuality; fill-rule:evenodd; clip-rule:evenodd" xmlns:xlink="http://www.w3.org/1999/xlink">
<g><path style="opacity:1" fill="#000000" d="M -0.5,-0.5 C 166.167,-0.5 332.833,-0.5 499.5,-0.5C 499.5,166.167 499.5,332.833 499.5,499.5C 332.833,499.5 166.167,499.5 -0.5,499.5C -0.5,332.833 -0.5,166.167 -0.5,-0.5 Z"/></g>
<g><path style="opacity:1" fill="#0052f5" d="M 248.5,210.5 C 195.833,173.167 143.167,135.833 90.5,98.5C 89.2267,97.9232 89.2267,97.2565 90.5,96.5C 101.804,99.3261 113.138,102.159 124.5,105C 166.09,139.948 207.424,175.114 248.5,210.5 Z"/></g>
<g><path style="opacity:1" fill="#000afd" d="M 90.5,98.5 C 143.167,135.833 195.833,173.167 248.5,210.5C 248.833,210.5 249.167,210.5 249.5,210.5C 249.461,211.756 249.961,212.756 251,213.5C 267.341,210.847 283.841,209.181 300.5,208.5C 300.5,221.167 300.5,233.833 300.5,246.5C 287.047,237.554 273.714,228.387 260.5,219C 223.737,213.484 187.07,207.65 150.5,201.5C 130.236,167.303 110.236,132.97 90.5,98.5 Z"/></g>
<g><path style="opacity:1" fill="#0253f8" d="M 289.5,190.5 C 292.78,196.441 296.447,202.108 300.5,207.5C 300.5,207.833 300.5,208.167 300.5,208.5C 283.841,209.181 267.341,210.847 251,213.5C 249.961,212.756 249.461,211.756 249.5,210.5C 250.15,210.804 250.817,211.137 251.5,211.5C 264.194,204.488 276.86,197.488 289.5,190.5 Z"/></g>
<g><path style="opacity:1" fill="#f1f2f4" d="M 289.5,190.5 C 299.989,194.122 310.656,197.122 321.5,199.5C 321.53,200.497 321.03,201.164 320,201.5C 313.573,203.81 307.073,205.81 300.5,207.5C 296.447,202.108 292.78,196.441 289.5,190.5 Z"/></g>
<g><path style="opacity:1" fill="#0055fc" d="M 150.5,201.5 C 187.07,207.65 223.737,213.484 260.5,219C 273.714,228.387 287.047,237.554 300.5,246.5C 300.5,246.833 300.5,247.167 300.5,247.5C 292.677,265.809 284.343,283.809 275.5,301.5C 270.022,275.941 264.855,250.274 260,224.5C 259.83,235.341 259.33,246.008 258.5,256.5C 258.667,244.162 258.5,231.829 258,219.5C 239.603,236.07 221.103,252.404 202.5,268.5C 173.707,244.878 145.04,221.045 116.5,197C 127.843,198.166 139.176,199.666 150.5,201.5 Z"/></g>
<g><path style="opacity:1" fill="#0009f6" d="M 325.5,200.5 C 351.841,200.558 378.174,201.058 404.5,202C 379.509,204.916 354.509,207.749 329.5,210.5C 328.439,207.378 327.105,204.378 325.5,201.5C 325.5,201.167 325.5,200.833 325.5,200.5 Z"/></g>
<g><path style="opacity:1" fill="#81c3f5" d="M 321.5,199.5 C 322.708,200.234 324.041,200.567 325.5,200.5C 325.5,200.833 325.5,201.167 325.5,201.5C 324.624,201.369 323.957,201.702 323.5,202.5C 316.55,216.066 309.883,229.733 303.5,243.5C 302.488,244.872 301.488,246.205 300.5,247.5C 300.5,247.167 300.5,246.833 300.5,246.5C 300.5,233.833 300.5,221.167 300.5,208.5C 300.5,208.167 300.5,207.833 300.5,207.5C 307.073,205.81 313.573,203.81 320,201.5C 321.03,201.164 321.53,200.497 321.5,199.5 Z"/></g>
<g><path style="opacity:1" fill="#eeeff0" d="M 325.5,201.5 C 327.105,204.378 328.439,207.378 329.5,210.5C 321.545,222.084 312.879,233.084 303.5,243.5C 309.883,229.733 316.55,216.066 323.5,202.5C 323.957,201.702 324.624,201.369 325.5,201.5 Z"/></g>
<g><path style="opacity:1" fill="#191c1d" d="M 306.5,211.5 C 310.138,210.737 311.638,212.07 311,215.5C 307.331,217.009 305.831,215.676 306.5,211.5 Z"/></g>
<g><path style="opacity:1" fill="#010bfd" d="M 275.5,301.5 C 275.5,301.833 275.5,302.167 275.5,302.5C 270.167,306.167 264.833,309.833 259.5,313.5C 259.167,313.5 258.833,313.5 258.5,313.5C 258.5,306.167 258.5,298.833 258.5,291.5C 258.5,279.833 258.5,268.167 258.5,256.5C 259.33,246.008 259.83,235.341 260,224.5C 264.855,250.274 270.022,275.941 275.5,301.5 Z"/></g>
<g><path style="opacity:1" fill="#0357fc" d="M 258.5,291.5 C 258.5,298.833 258.5,306.167 258.5,313.5C 242.333,299.502 225.999,285.669 209.5,272C 225.973,277.895 242.307,284.395 258.5,291.5 Z"/></g>
<g><path style="opacity:1" fill="#82c8fc" d="M 258.5,256.5 C 258.5,268.167 258.5,279.833 258.5,291.5C 242.307,284.395 225.973,277.895 209.5,272C 225.999,285.669 242.333,299.502 258.5,313.5C 258.833,313.5 259.167,313.5 259.5,313.5C 260.37,315.274 261.703,316.607 263.5,317.5C 262.262,317.81 262.262,318.31 263.5,319C 280.331,332.334 296.997,345.834 313.5,359.5C 308.847,372.813 304.18,386.146 299.5,399.5C 299.253,400.713 298.586,401.38 297.5,401.5C 268.833,359.833 240.167,318.167 211.5,276.5C 210.136,274.809 208.803,273.142 207.5,271.5C 206.035,270.263 204.368,269.263 202.5,268.5C 221.103,252.404 239.603,236.07 258,219.5C 258.5,231.829 258.667,244.162 258.5,256.5 Z"/></g>
<g><path style="opacity:1" fill="#020cfc" d="M 211.5,276.5 C 240.167,318.167 268.833,359.833 297.5,401.5C 284.37,395.102 271.37,388.435 258.5,381.5C 242.498,346.829 226.498,312.162 210.5,277.5C 210.624,276.893 210.957,276.56 211.5,276.5 Z"/></g>
<g><path style="opacity:1" fill="#0250f7" d="M 207.5,271.5 C 208.803,273.142 210.136,274.809 211.5,276.5C 210.957,276.56 210.624,276.893 210.5,277.5C 226.498,312.162 242.498,346.829 258.5,381.5C 251.894,382.645 245.394,384.311 239,386.5C 237.144,385.798 235.977,384.464 235.5,382.5C 236.613,381.054 236.78,379.387 236,377.5C 228.052,350.376 220.718,323.043 214,295.5C 212.514,291.224 211.181,286.891 210,282.5C 209.536,283.094 209.369,283.761 209.5,284.5C 208.291,280.382 207.624,276.049 207.5,271.5 Z"/></g>
<g><path style="opacity:1" fill="#000af3" d="M 235.5,382.5 C 230.286,370.402 224.786,358.402 219,346.5C 215.505,325.875 212.338,305.209 209.5,284.5C 209.369,283.761 209.536,283.094 210,282.5C 211.181,286.891 212.514,291.224 214,295.5C 220.718,323.043 228.052,350.376 236,377.5C 236.78,379.387 236.613,381.054 235.5,382.5 Z"/></g>
<g><path style="opacity:1" fill="#f2f2f3" d="M 275.5,302.5 C 293.836,320.836 311.836,339.503 329.5,358.5C 307.192,345.345 285.192,331.679 263.5,317.5C 261.703,316.607 260.37,315.274 259.5,313.5C 264.833,309.833 270.167,306.167 275.5,302.5 Z"/></g>
<g><path style="opacity:1" fill="#0f59fa" d="M 263.5,317.5 C 285.192,331.679 307.192,345.345 329.5,358.5C 324.36,359.488 319.026,359.821 313.5,359.5C 296.997,345.834 280.331,332.334 263.5,319C 262.262,318.31 262.262,317.81 263.5,317.5 Z"/></g>
</svg>
